<?xml version="1.0" encoding="utf-8"?>
<!-- Generator: Adobe Illustrator 27.0.0, SVG Export Plug-In . SVG Version: 6.00 Build 0)  -->
<svg version="1.1" id="Layer_1" xmlns="http://www.w3.org/2000/svg" xmlns:xlink="http://www.w3.org/1999/xlink" x="0px" y="0px"
	 viewBox="0 0 184 154" style="enable-background:new 0 0 184 154;" xml:space="preserve">
<style type="text/css">
	.st0{fill:#FFFFFF;}
	.st1{clip-path:url(#SVGID_00000182527635260111331030000016604324368174962615_);}
	
		.st2{fill:url(#SVGID_00000000224482234808878620000000867319290871616185_);stroke:url(#SVGID_00000134221175566638954880000001148409773903655611_);}
	.st3{fill:none;stroke:url(#SVGID_00000183943945702242842390000015300345716880437899_);}
</style>
<path class="st0" d="M3.8,151.8c0,0.2,0.1,0.3,0.3,0.4c0.2,0.1,0.4,0.1,0.7,0.1h1.9c0.3,0,0.6,0,0.9-0.1c0.2-0.1,0.4-0.2,0.6-0.4
	s0.3-0.4,0.4-0.6c0.1-0.2,0.3-0.5,0.4-0.8c0-0.1,0.1-0.1,0.2-0.1c0.1,0,0.1,0,0.2,0.1c0.1,0,0.1,0.1,0.2,0.1
	c-0.1,0.3-0.2,0.7-0.2,1.1c-0.1,0.4-0.1,0.8-0.2,1.3c0,0.1,0,0.2-0.1,0.2c-0.1,0-0.1,0.1-0.2,0.1c-0.2,0-0.4,0-0.7-0.1
	c-0.3,0-0.5,0-0.7,0H2.9c-0.3,0-0.6,0-1,0c-0.4,0-0.8,0-1.1,0.1c0-0.1,0-0.2,0-0.3c0-0.2,0.1-0.2,0.2-0.3c0.5-0.1,0.8-0.2,1-0.3
	c0.2-0.1,0.3-0.3,0.3-0.5v-8.7c0-0.2-0.1-0.4-0.2-0.5c-0.2-0.1-0.5-0.2-0.9-0.3c-0.1,0-0.1,0-0.1-0.1c0-0.1,0-0.1,0-0.2
	c0-0.1,0-0.2,0-0.3c0.4,0,0.8,0,1.1,0.1c0.4,0,0.7,0,1,0c0.4,0,0.8,0,1.2,0c0.4,0,0.8,0,1.2-0.1c0,0.1,0,0.2,0,0.3
	c0,0.2-0.1,0.3-0.2,0.3c-0.5,0.1-0.8,0.1-1.1,0.3c-0.2,0.1-0.3,0.3-0.3,0.6V151.8z M24.3,149h-3.8l-1.1,2.7
	c-0.1,0.1-0.1,0.2-0.1,0.3c0,0.2,0.3,0.4,1,0.5c0.1,0,0.1,0,0.2,0.1c0,0,0.1,0.1,0.1,0.2c0,0.1,0,0.2,0,0.3c-0.3,0-0.6,0-1-0.1
	c-0.3,0-0.7,0-1,0c-0.2,0-0.5,0-0.7,0s-0.5,0-0.7,0.1c0-0.1,0-0.2,0-0.3c0-0.1,0-0.1,0-0.2c0-0.1,0.1-0.1,0.2-0.1
	c0.4-0.1,0.6-0.1,0.8-0.2c0.2-0.1,0.3-0.2,0.4-0.4l4.1-9.9c0.1-0.2,0.2-0.3,0.3-0.3c0,0,0.1,0,0.2,0l4.1,10.2
	c0.1,0.2,0.2,0.3,0.5,0.4c0.2,0.1,0.5,0.2,0.7,0.2c0.1,0,0.1,0.1,0.2,0.1c0,0,0.1,0.1,0.1,0.2c0,0.1,0,0.2,0,0.3
	c-0.4,0-0.7,0-1.1-0.1c-0.4,0-0.7,0-1,0c-0.3,0-0.7,0-1.1,0c-0.4,0-0.8,0-1.1,0.1c0-0.1,0-0.2,0-0.3c0-0.1,0-0.2,0.1-0.2
	c0,0,0.1-0.1,0.1-0.1c0.3-0.1,0.5-0.1,0.7-0.2c0.2-0.1,0.3-0.2,0.3-0.3c0-0.1,0-0.2-0.1-0.3L24.3,149z M24,148.3l-1.6-4.2l-1.6,4.2
	H24z M43.6,144.6c-0.1,0-0.2,0-0.3,0c-0.1,0-0.3,0-0.3-0.1c-0.1-0.1-0.1-0.1-0.2-0.2c-0.3-0.6-0.6-1.1-1.1-1.4s-1-0.4-1.7-0.4
	c-0.3,0-0.5,0-0.8,0.1c-0.2,0.1-0.4,0.2-0.6,0.3c-0.2,0.1-0.3,0.3-0.4,0.5c-0.1,0.2-0.2,0.4-0.2,0.7c0,0.5,0.2,1,0.7,1.3
	c0.5,0.3,1.1,0.7,2,1c1.1,0.4,1.9,0.9,2.4,1.4c0.5,0.5,0.8,1.2,0.8,1.9c0,0.5-0.1,0.9-0.2,1.3c-0.1,0.4-0.4,0.7-0.7,1.1
	c-0.3,0.3-0.7,0.5-1.2,0.7c-0.5,0.2-1,0.3-1.7,0.3c-0.7,0-1.3-0.1-1.9-0.2c-0.6-0.1-1-0.3-1.4-0.6c0-0.5-0.1-0.9-0.2-1.4
	s-0.1-0.9-0.2-1.3c0.1,0,0.2-0.1,0.3-0.1c0.1,0,0.2,0,0.3,0.1c0.1,0.1,0.1,0.2,0.2,0.3c0.3,0.8,0.6,1.4,1.1,1.8
	c0.5,0.4,1.1,0.6,1.9,0.6c0.4,0,0.7-0.1,1-0.2c0.3-0.1,0.5-0.2,0.7-0.4c0.2-0.2,0.3-0.4,0.4-0.6c0.1-0.2,0.1-0.5,0.1-0.7
	c0-0.6-0.2-1.1-0.6-1.4c-0.4-0.3-1-0.6-1.7-0.9c-0.5-0.2-0.9-0.4-1.3-0.6c-0.4-0.2-0.7-0.4-1-0.7c-0.3-0.3-0.5-0.6-0.7-0.9
	c-0.1-0.4-0.2-0.8-0.2-1.2c0-0.4,0.1-0.8,0.2-1.2c0.2-0.4,0.4-0.7,0.7-1c0.3-0.3,0.6-0.5,1.1-0.6c0.4-0.2,0.9-0.2,1.4-0.2
	c0.5,0,1,0.1,1.5,0.2c0.5,0.1,1,0.3,1.6,0.5c0,0.3,0.1,0.7,0.1,1.1C43.5,143.9,43.6,144.3,43.6,144.6z M58.6,142.6v9.1
	c0,0.3,0.1,0.4,0.3,0.6c0.2,0.1,0.6,0.2,1.1,0.2c0.1,0,0.2,0.1,0.2,0.3c0,0.1,0,0.2,0,0.3c-0.4,0-0.7,0-1.2-0.1c-0.4,0-0.8,0-1.2,0
	c-0.4,0-0.8,0-1.2,0c-0.4,0-0.8,0-1.2,0.1c0-0.1,0-0.2,0-0.3c0-0.2,0.1-0.2,0.2-0.3c0.5-0.1,0.9-0.2,1.1-0.3
	c0.2-0.1,0.3-0.3,0.3-0.5v-9.1h-1.8c-0.3,0-0.6,0-0.9,0.1c-0.2,0.1-0.4,0.2-0.6,0.3c-0.2,0.1-0.3,0.3-0.4,0.5
	c-0.1,0.2-0.3,0.5-0.4,0.7c0,0.1-0.1,0.1-0.1,0.1c0,0-0.1,0-0.1,0c-0.1,0-0.2,0-0.3-0.1c0.1-0.4,0.2-0.8,0.3-1.1
	c0.1-0.3,0.1-0.6,0.2-0.8c0-0.2,0.1-0.4,0.1-0.5c0.1-0.1,0.1-0.2,0.3-0.2c0.1,0,0.2,0,0.3,0s0.3,0,0.5,0c0.2,0,0.3,0,0.5,0
	c0.2,0,0.3,0,0.5,0h5.7c0.1,0,0.3,0,0.5,0c0.2,0,0.3,0,0.5,0c0.2,0,0.3,0,0.5,0c0.1,0,0.3,0,0.4,0c0.1,0,0.2,0.1,0.2,0.2
	c0.1,0.1,0.1,0.3,0.2,0.5s0.1,0.5,0.1,0.8c0.1,0.3,0.1,0.7,0.3,1.1c-0.1,0-0.1,0-0.2,0.1c0,0-0.1,0-0.2,0c0,0-0.1,0-0.2,0
	c-0.1,0-0.1-0.1-0.1-0.1c-0.1-0.3-0.2-0.5-0.4-0.7s-0.3-0.4-0.4-0.5c-0.2-0.1-0.4-0.2-0.6-0.3c-0.2-0.1-0.5-0.1-0.9-0.1H58.6z
	 M90.5,141.8c0.1,0,0.1,0,0.2,0c0.1,0,0.2,0.1,0.2,0.2l2.9,8.2l2.4-6.9c0-0.1,0-0.1,0.1-0.2c0-0.1,0-0.1,0-0.2
	c0-0.2-0.1-0.3-0.3-0.4c-0.2-0.1-0.4-0.1-0.8-0.2c-0.1,0-0.2-0.1-0.2-0.3c0-0.1,0-0.2,0-0.3c0.3,0,0.6,0,0.9,0.1c0.3,0,0.6,0,0.9,0
	c0.3,0,0.6,0,0.9,0c0.3,0,0.6,0,0.7-0.1c0,0,0,0.1,0,0.1c0,0.1,0,0.1,0,0.1c0,0.2-0.1,0.3-0.2,0.3c-0.3,0-0.6,0.1-0.8,0.2
	c-0.2,0.1-0.3,0.2-0.4,0.4l-3.6,10.1c-0.1,0-0.1,0-0.2,0c-0.1,0-0.2-0.1-0.3-0.3l-2.8-8l-2.9,8.3c0,0-0.1,0-0.2,0
	c-0.1,0-0.2-0.1-0.3-0.3l-3.7-9.9c-0.1-0.2-0.2-0.3-0.3-0.4c-0.1-0.1-0.4-0.1-0.8-0.2c-0.1,0-0.2-0.1-0.2-0.3c0-0.1,0-0.1,0-0.3
	c0.2,0,0.3,0,0.5,0c0.2,0,0.4,0,0.6,0c0.2,0,0.4,0,0.5,0c0.2,0,0.3,0,0.5,0c0.3,0,0.6,0,1,0c0.4,0,0.8,0,1.1-0.1c0,0.1,0,0.2,0,0.3
	c0,0.2-0.1,0.3-0.2,0.3c-0.3,0-0.6,0.1-0.8,0.2c-0.2,0.1-0.3,0.2-0.3,0.4c0,0.1,0,0.1,0.1,0.2l2.6,7L90.5,141.8z M109.8,151.8
	c0,0.2,0.1,0.4,0.2,0.5c0.2,0.1,0.5,0.2,0.9,0.3c0.1,0,0.2,0.1,0.2,0.3c0,0.1,0,0.2,0,0.3c-0.4,0-0.7,0-1.1-0.1c-0.4,0-0.7,0-1,0
	c-0.3,0-0.6,0-1,0c-0.4,0-0.7,0-1,0.1c0-0.1,0-0.2,0-0.3c0-0.2,0.1-0.2,0.2-0.3c0.4-0.1,0.7-0.2,0.9-0.3c0.2-0.1,0.2-0.2,0.2-0.5
	v-8.7c0-0.2-0.1-0.4-0.2-0.5c-0.2-0.1-0.5-0.2-0.9-0.3c-0.1,0-0.1,0-0.1-0.1c0-0.1,0-0.1,0-0.2c0-0.1,0-0.2,0-0.3
	c0.3,0,0.7,0,1.1,0.1c0.4,0,0.7,0,1,0c0.3,0,0.6,0,1,0c0.4,0,0.7,0,1.1-0.1c0,0.1,0,0.2,0,0.3c0,0.2-0.1,0.3-0.2,0.3
	c-0.4,0.1-0.7,0.2-0.9,0.3c-0.2,0.1-0.2,0.2-0.2,0.5V151.8z M127.4,144.6c-0.1,0-0.2,0-0.3,0c-0.1,0-0.3,0-0.3-0.1
	c-0.1-0.1-0.1-0.1-0.2-0.2c-0.3-0.6-0.6-1.1-1.1-1.4c-0.4-0.3-1-0.4-1.7-0.4c-0.3,0-0.5,0-0.8,0.1c-0.2,0.1-0.4,0.2-0.6,0.3
	c-0.2,0.1-0.3,0.3-0.4,0.5c-0.1,0.2-0.2,0.4-0.2,0.7c0,0.5,0.2,1,0.7,1.3c0.5,0.3,1.1,0.7,2,1c1.1,0.4,1.9,0.9,2.4,1.4
	c0.5,0.5,0.8,1.2,0.8,1.9c0,0.5-0.1,0.9-0.2,1.3c-0.1,0.4-0.4,0.7-0.7,1.1c-0.3,0.3-0.7,0.5-1.2,0.7s-1,0.3-1.7,0.3
	c-0.7,0-1.3-0.1-1.9-0.2c-0.6-0.1-1-0.3-1.4-0.6c0-0.5-0.1-0.9-0.2-1.4s-0.1-0.9-0.2-1.3c0.1,0,0.2-0.1,0.3-0.1c0.1,0,0.2,0,0.3,0.1
	c0.1,0.1,0.1,0.2,0.2,0.3c0.3,0.8,0.6,1.4,1.1,1.8c0.5,0.4,1.1,0.6,1.9,0.6c0.4,0,0.7-0.1,1-0.2c0.3-0.1,0.5-0.2,0.7-0.4
	c0.2-0.2,0.3-0.4,0.4-0.6c0.1-0.2,0.1-0.5,0.1-0.7c0-0.6-0.2-1.1-0.6-1.4c-0.4-0.3-1-0.6-1.7-0.9c-0.5-0.2-0.9-0.4-1.3-0.6
	c-0.4-0.2-0.7-0.4-1-0.7c-0.3-0.3-0.5-0.6-0.7-0.9c-0.1-0.4-0.2-0.8-0.2-1.2c0-0.4,0.1-0.8,0.2-1.2c0.2-0.4,0.4-0.7,0.7-1
	c0.3-0.3,0.6-0.5,1.1-0.6c0.4-0.2,0.9-0.2,1.4-0.2c0.5,0,1,0.1,1.5,0.2c0.5,0.1,1,0.3,1.6,0.5c0,0.3,0.1,0.7,0.1,1.1
	C127.3,143.9,127.3,144.3,127.4,144.6z M146.8,151.8c0,0.2,0.1,0.4,0.2,0.5c0.1,0.1,0.4,0.2,0.9,0.3c0.1,0,0.2,0.1,0.2,0.2
	c0,0.1,0,0.2,0,0.3c-0.3,0-0.6,0-1-0.1c-0.4,0-0.7,0-1,0c-0.3,0-0.7,0-1,0c-0.4,0-0.7,0-1,0.1c0-0.1,0-0.2,0-0.3
	c0-0.1,0.1-0.2,0.2-0.2c0.4-0.1,0.7-0.2,0.9-0.3c0.2-0.1,0.2-0.2,0.2-0.5v-4.1h-5.3v4.1c0,0.2,0.1,0.4,0.2,0.5
	c0.1,0.1,0.4,0.2,0.9,0.3c0.1,0,0.2,0.1,0.2,0.2c0,0.1,0,0.2,0,0.3c-0.3,0-0.6,0-1-0.1c-0.4,0-0.7,0-1,0c-0.3,0-0.7,0-1,0
	c-0.4,0-0.7,0-1.1,0.1c0-0.1,0-0.2,0-0.3c0-0.1,0.1-0.2,0.2-0.2c0.4-0.1,0.7-0.2,0.9-0.3c0.2-0.1,0.2-0.2,0.2-0.5v-8.6
	c0-0.1,0-0.2-0.1-0.3c0-0.1-0.1-0.1-0.2-0.2c-0.1-0.1-0.2-0.1-0.3-0.1c-0.1,0-0.3-0.1-0.5-0.1c-0.1,0-0.2-0.1-0.2-0.3
	c0-0.1,0-0.2,0-0.3c0.3,0,0.6,0,1,0.1c0.4,0,0.7,0,1,0c0.3,0,0.7,0,1,0c0.4,0,0.7,0,1-0.1c0,0.1,0,0.2,0,0.3c0,0.2-0.1,0.2-0.2,0.3
	c-0.4,0.1-0.7,0.2-0.9,0.3c-0.1,0.1-0.2,0.3-0.2,0.5v3.8h5.3v-3.8c0-0.2-0.1-0.3-0.2-0.5c-0.1-0.1-0.4-0.2-0.9-0.3
	c-0.1,0-0.2-0.1-0.2-0.3c0-0.1,0-0.2,0-0.3c0.3,0,0.6,0,1,0.1c0.4,0,0.7,0,1,0c0.3,0,0.6,0,1,0c0.4,0,0.7,0,1.1-0.1
	c0,0.1,0,0.2,0,0.3c0,0.2-0.1,0.2-0.2,0.3c-0.4,0.1-0.7,0.2-0.9,0.3c-0.1,0.1-0.2,0.3-0.2,0.5V151.8z M160.1,142.6v4.4h2.7
	c0.2,0,0.4-0.1,0.5-0.3c0.1-0.2,0.2-0.5,0.2-0.8c0-0.1,0.1-0.2,0.3-0.2c0,0,0.1,0,0.1,0c0.1,0,0.1,0,0.1,0c0,0.2,0,0.5-0.1,0.8
	c0,0.3,0,0.6,0,0.8c0,0.2,0,0.4,0,0.7c0,0.3,0,0.6,0.1,0.9c-0.1,0-0.2,0-0.3,0c-0.2,0-0.3-0.1-0.3-0.2c-0.1-0.3-0.1-0.6-0.2-0.8
	c-0.1-0.2-0.2-0.3-0.5-0.3h-2.7v4c0,0.2,0.2,0.4,0.5,0.5c0.3,0.1,0.8,0.1,1.5,0.1h0.9c0.3,0,0.6,0,0.9-0.1c0.2-0.1,0.5-0.2,0.6-0.4
	c0.2-0.2,0.4-0.4,0.5-0.6c0.1-0.2,0.3-0.5,0.4-0.7c0-0.1,0.1-0.1,0.3-0.1c0.1,0,0.1,0,0.2,0.1c0.1,0,0.1,0.1,0.2,0.1
	c-0.1,0.2-0.2,0.5-0.3,0.8c-0.1,0.3-0.1,0.6-0.2,0.9c-0.1,0.3-0.1,0.5-0.2,0.7c-0.1,0.2-0.2,0.3-0.3,0.3c-0.1,0-0.2,0-0.4,0
	c-0.2,0-0.4,0-0.6,0c-0.2,0-0.4,0-0.6,0c-0.2,0-0.4,0-0.5,0h-3.7c-0.3,0-0.7,0-1.1,0c-0.4,0-0.7,0-1.1,0.1c0-0.1,0-0.2,0-0.3
	c0-0.2,0.1-0.2,0.2-0.3c0.4-0.1,0.7-0.2,0.9-0.3c0.2-0.1,0.3-0.2,0.3-0.5v-8.7c0-0.2-0.1-0.4-0.3-0.5c-0.2-0.1-0.5-0.2-1-0.3
	c-0.1,0-0.2-0.1-0.2-0.3c0-0.1,0-0.1,0-0.1c0,0,0-0.1,0-0.1c0.5,0,0.9,0.1,1.2,0.1c0.3,0,0.6,0,0.9,0h3.3c0.5,0,1,0,1.3-0.1
	c0.4,0,0.6-0.1,0.7-0.1c0.1,0,0.2,0.1,0.3,0.3c0.1,0.2,0.1,0.4,0.1,0.7s0.1,0.5,0.1,0.8c0,0.3,0.1,0.5,0.3,0.7
	c-0.1,0.1-0.2,0.1-0.3,0.1c-0.1,0-0.2-0.1-0.3-0.2c-0.1-0.3-0.3-0.5-0.4-0.7c-0.1-0.2-0.3-0.4-0.4-0.5c-0.2-0.1-0.4-0.2-0.6-0.3
	c-0.2-0.1-0.5-0.1-0.8-0.1H160.1z M182.2,144.6c-0.1,0-0.2,0-0.3,0c-0.1,0-0.3,0-0.3-0.1c-0.1-0.1-0.1-0.1-0.2-0.2
	c-0.3-0.6-0.6-1.1-1.1-1.4s-1-0.4-1.7-0.4c-0.3,0-0.5,0-0.8,0.1c-0.2,0.1-0.4,0.2-0.6,0.3c-0.2,0.1-0.3,0.3-0.4,0.5
	c-0.1,0.2-0.2,0.4-0.2,0.7c0,0.5,0.2,1,0.7,1.3c0.5,0.3,1.1,0.7,2,1c1.1,0.4,1.9,0.9,2.4,1.4c0.5,0.5,0.8,1.2,0.8,1.9
	c0,0.5-0.1,0.9-0.2,1.3c-0.1,0.4-0.4,0.7-0.7,1.1c-0.3,0.3-0.7,0.5-1.2,0.7s-1,0.3-1.7,0.3c-0.7,0-1.3-0.1-1.9-0.2
	c-0.6-0.1-1-0.3-1.4-0.6c0-0.5-0.1-0.9-0.2-1.4c-0.1-0.4-0.1-0.9-0.2-1.3c0.1,0,0.2-0.1,0.3-0.1c0.1,0,0.2,0,0.3,0.1
	c0.1,0.1,0.1,0.2,0.2,0.3c0.3,0.8,0.6,1.4,1.1,1.8c0.5,0.4,1.1,0.6,1.9,0.6c0.4,0,0.7-0.1,1-0.2c0.3-0.1,0.5-0.2,0.7-0.4
	c0.2-0.2,0.3-0.4,0.4-0.6c0.1-0.2,0.1-0.5,0.1-0.7c0-0.6-0.2-1.1-0.6-1.4c-0.4-0.3-1-0.6-1.7-0.9c-0.5-0.2-0.9-0.4-1.3-0.6
	c-0.4-0.2-0.7-0.4-1-0.7c-0.3-0.3-0.5-0.6-0.7-0.9c-0.1-0.4-0.2-0.8-0.2-1.2c0-0.4,0.1-0.8,0.2-1.2c0.2-0.4,0.4-0.7,0.7-1
	c0.3-0.3,0.6-0.5,1.1-0.6c0.4-0.2,0.9-0.2,1.4-0.2c0.5,0,1,0.1,1.5,0.2c0.5,0.1,1,0.3,1.6,0.5c0,0.3,0.1,0.7,0.1,1.1
	C182.1,143.9,182.1,144.3,182.2,144.6z"/>
<g>
	<defs>
		<rect id="SVGID_1_" x="40" y="0" width="118" height="118"/>
	</defs>
	<clipPath id="SVGID_00000174565331858142784840000009437181378030131601_">
		<use xlink:href="#SVGID_1_"  style="overflow:visible;"/>
	</clipPath>
	<g style="clip-path:url(#SVGID_00000174565331858142784840000009437181378030131601_);">
		
			<linearGradient id="SVGID_00000181061467736072510180000014562052194874433469_" gradientUnits="userSpaceOnUse" x1="99.0002" y1="117.0678" x2="99.0002" y2="-2.102688e-04">
			<stop  offset="0" style="stop-color:#FFFFFF"/>
			<stop  offset="1" style="stop-color:#FFFFFF;stop-opacity:0"/>
		</linearGradient>
		
			<linearGradient id="SVGID_00000021841946862208583040000012427805802070177170_" gradientUnits="userSpaceOnUse" x1="99.0002" y1="117.0678" x2="99.0002" y2="-9.094947e-13">
			<stop  offset="0.4688" style="stop-color:#FFFFFF;stop-opacity:0.7"/>
			<stop  offset="1" style="stop-color:#FFFFFF;stop-opacity:0.2"/>
		</linearGradient>
		
			<path style="fill:url(#SVGID_00000181061467736072510180000014562052194874433469_);stroke:url(#SVGID_00000021841946862208583040000012427805802070177170_);" d="
			M99,0.5c-32.8,0-58.1,24-58.1,56.3c0,16.9,6.9,31.5,18.2,41.6l0,0c1.1,0.9,1.7,2.3,1.7,3.7l0,0l0.3,10.4c0,0,0,0,0,0
			c0.1,3,3.2,4.9,5.9,3.7c0,0,0,0,0,0l11.6-5.1c1.1-0.5,2.3-0.6,3.5-0.3h0c5.3,1.5,10.9,2.2,16.8,2.2c32.8,0,58.1-24,58.1-56.3
			S131.8,0.5,99,0.5z M116.2,58.7L98.6,76.3c-0.6,0.6-1.5,0.6-2.1,0L78.9,58.7c-2.2-2.2-3.5-5.3-3.5-8.4c0-6.6,5.3-11.9,11.9-11.9
			c3.2,0,6.2,1.3,8.4,3.5l1.8,1.8l1.8-1.8c2.2-2.2,5.3-3.5,8.4-3.5c6.6,0,11.9,5.3,11.9,11.9C119.7,53.4,118.4,56.4,116.2,58.7z"/>
		<g>
			
				<linearGradient id="SVGID_00000062883563108450539840000018181432920982351027_" gradientUnits="userSpaceOnUse" x1="97.525" y1="116.9255" x2="97.525" y2="78.5755" gradientTransform="matrix(1 0 0 -1 0 155.2756)">
				<stop  offset="0" style="stop-color:#FFFFFF"/>
				<stop  offset="1" style="stop-color:#FFFFFF;stop-opacity:0"/>
			</linearGradient>
			
				<path shape-rendering="crispEdges" style="fill:none;stroke:url(#SVGID_00000062883563108450539840000018181432920982351027_);" d="
				M87.3,38.4c-6.6,0-11.9,5.3-11.9,11.9c0,3.2,1.3,6.2,3.5,8.4l17.6,17.6c0.6,0.6,1.5,0.6,2.1,0l17.6-17.6c2.2-2.2,3.5-5.3,3.5-8.4
				c0-6.6-5.3-11.9-11.9-11.9c-3.2,0-6.2,1.3-8.4,3.5l-1.8,1.8l-1.8-1.8C93.5,39.6,90.5,38.4,87.3,38.4z"/>
		</g>
	</g>
</g>
</svg>
